<svg width="40" height="40" viewBox="0 0 40 40" fill="none" xmlns="http://www.w3.org/2000/svg">
<path d="M34.9994 0L24.9994 7.5V12.3484L18.5127 18.8352C19.0432 19.1672 19.5494 19.543 20.0025 19.9969C20.4557 20.45 20.8322 20.9562 21.1643 21.4867L27.651 15H32.4994L39.9994 5L34.9994 0ZM9.99941 21.7648L0.852539 30.9117C-0.28418 32.0484 -0.28418 33.8922 0.852539 35.0297L4.96973 39.1469C6.10723 40.2844 7.9502 40.2844 9.0877 39.1469L18.2346 30C20.5088 27.7258 20.5088 24.0391 18.2346 21.7648C15.9604 19.4906 12.2736 19.4906 9.99941 21.7648Z" fill="black"/>
</svg>
