<svg width="45" height="40" viewBox="0 0 45 40" fill="none" xmlns="http://www.w3.org/2000/svg">
<path d="M44.633 15.1514L42.865 13.3835C42.3767 12.8952 41.5853 12.8952 41.0971 13.3835L40.2135 14.2671L37.9557 12.0093C38.3955 10.3444 37.9838 8.50149 36.6784 7.19604L33.1432 3.66091C28.262 -1.2203 20.3472 -1.2203 15.4652 3.66091L22.5363 7.19604V8.66087C22.5363 9.98664 23.0628 11.2585 24.0011 12.196L27.8401 16.035C29.1456 17.3405 30.9886 17.7522 32.6534 17.3124L34.9112 19.5702L34.0276 20.4537C33.5393 20.942 33.5393 21.7334 34.0276 22.2217L35.7955 23.9897C36.2838 24.4779 37.0752 24.4779 37.5635 23.9897L44.6345 16.9186C45.1213 16.4311 45.1213 15.6397 44.633 15.1514ZM22.2332 13.964C21.9441 13.6749 21.6988 13.3554 21.4636 13.0304L1.5341 31.6372C-0.463537 33.5029 -0.517442 36.652 1.41457 38.5848C3.34659 40.5176 6.49656 40.4637 8.36217 38.4653L26.9659 18.5381C26.6566 18.3108 26.3487 18.0795 26.0722 17.803L22.2332 13.964Z" fill="black"/>
</svg>
