<svg width="26" height="23" viewBox="0 0 26 23" fill="none" xmlns="http://www.w3.org/2000/svg">
<path d="M3.13135 18.2467L3.98584 17.2628C4.1559 17.0732 4.24479 16.8244 4.2334 16.5699V16.4083C4.2334 16.0494 4.0459 15.8541 3.67969 15.8541H0.896484C0.792884 15.8541 0.693527 15.8953 0.620271 15.9685C0.547014 16.0418 0.505859 16.1412 0.505859 16.2448V17.026C0.505859 17.1296 0.547014 17.229 0.620271 17.3022C0.693527 17.3755 0.792884 17.4166 0.896484 17.4166H2.01123C1.8218 17.6075 1.64252 17.8081 1.47412 18.0177L1.2002 18.3595C1.00488 18.6071 0.943848 18.8541 1.06348 19.0861L1.11475 19.1803C1.26123 19.4615 1.42188 19.5651 1.71289 19.5651H1.94385C2.44824 19.5651 2.72217 19.6842 2.72217 20.0089C2.72217 20.2394 2.51709 20.4103 2.021 20.4103C1.76178 20.4082 1.50537 20.3565 1.26562 20.2579C0.94873 20.0685 0.692383 20.087 0.503906 20.4103L0.230957 20.8649C0.0493164 21.1642 0.0751953 21.4371 0.359375 21.6432C0.73584 21.8722 1.35449 22.1041 2.16602 22.1041C3.83398 22.1041 4.53418 20.9933 4.53418 19.9498C4.53271 19.2477 4.08887 18.4967 3.13135 18.2467ZM24.334 9.60413H8.70898C8.50178 9.60413 8.30307 9.68644 8.15656 9.83295C8.01004 9.97946 7.92773 10.1782 7.92773 10.3854V11.9479C7.92773 12.1551 8.01004 12.3538 8.15656 12.5003C8.30307 12.6468 8.50178 12.7291 8.70898 12.7291H24.334C24.5412 12.7291 24.7399 12.6468 24.8864 12.5003C25.0329 12.3538 25.1152 12.1551 25.1152 11.9479V10.3854C25.1152 10.1782 25.0329 9.97946 24.8864 9.83295C24.7399 9.68644 24.5412 9.60413 24.334 9.60413ZM24.334 1.79163H8.70898C8.50178 1.79163 8.30307 1.87394 8.15656 2.02045C8.01004 2.16696 7.92773 2.36568 7.92773 2.57288V4.13538C7.92773 4.34258 8.01004 4.54129 8.15656 4.6878C8.30307 4.83432 8.50178 4.91663 8.70898 4.91663H24.334C24.5412 4.91663 24.7399 4.83432 24.8864 4.6878C25.0329 4.54129 25.1152 4.34258 25.1152 4.13538V2.57288C25.1152 2.36568 25.0329 2.16696 24.8864 2.02045C24.7399 1.87394 24.5412 1.79163 24.334 1.79163ZM24.334 17.4166H8.70898C8.50178 17.4166 8.30307 17.4989 8.15656 17.6454C8.01004 17.792 7.92773 17.9907 7.92773 18.1979V19.7604C7.92773 19.9676 8.01004 20.1663 8.15656 20.3128C8.30307 20.4593 8.50178 20.5416 8.70898 20.5416H24.334C24.5412 20.5416 24.7399 20.4593 24.8864 20.3128C25.0329 20.1663 25.1152 19.9676 25.1152 19.7604V18.1979C25.1152 17.9907 25.0329 17.792 24.8864 17.6454C24.7399 17.4989 24.5412 17.4166 24.334 17.4166ZM0.896484 6.47913H4.02148C4.12508 6.47913 4.22444 6.43797 4.2977 6.36471C4.37095 6.29146 4.41211 6.1921 4.41211 6.0885V5.30725C4.41211 5.20365 4.37095 5.10429 4.2977 5.03104C4.22444 4.95778 4.12508 4.91663 4.02148 4.91663H3.24023V0.619751C3.24023 0.516151 3.19908 0.416794 3.12582 0.343537C3.05257 0.270281 2.95321 0.229126 2.84961 0.229126H1.67773C1.60533 0.229255 1.53439 0.249505 1.47282 0.287615C1.41126 0.325726 1.3615 0.380196 1.3291 0.444946L0.938477 1.2262C0.908701 1.2857 0.894619 1.35182 0.897564 1.41829C0.900509 1.48476 0.920384 1.54938 0.955305 1.60602C0.990225 1.66265 1.03903 1.70943 1.0971 1.74191C1.15517 1.7744 1.22057 1.79151 1.28711 1.79163H1.67773V4.91663H0.896484C0.792884 4.91663 0.693527 4.95778 0.620271 5.03104C0.547014 5.10429 0.505859 5.20365 0.505859 5.30725V6.0885C0.505859 6.1921 0.547014 6.29146 0.620271 6.36471C0.693527 6.43797 0.792884 6.47913 0.896484 6.47913ZM0.705566 14.2916H4.02148C4.12508 14.2916 4.22444 14.2505 4.2977 14.1772C4.37095 14.104 4.41211 14.0046 4.41211 13.901V13.1198C4.41211 13.0162 4.37095 12.9168 4.2977 12.8435C4.22444 12.7703 4.12508 12.7291 4.02148 12.7291H2.13281C2.29346 12.2267 4.49316 11.817 4.49316 9.97327C4.49316 8.55432 3.27246 8.04163 2.32178 8.04163C1.27881 8.04163 0.671387 8.52991 0.346191 8.95715C0.132813 9.2301 0.199707 9.48645 0.48291 9.70764L0.901855 10.0436C1.17578 10.2662 1.43896 10.1642 1.68896 9.92444C1.81228 9.80361 1.97824 9.73625 2.15088 9.73694C2.31348 9.73694 2.604 9.81311 2.604 10.1642C2.60547 10.7853 0.115234 11.2306 0.115234 13.5392V13.7345C0.115234 14.0963 0.363281 14.2916 0.705566 14.2916Z" fill="#555555"/>
</svg>
