<svg width="26" height="18" viewBox="0 0 26 18" fill="none" xmlns="http://www.w3.org/2000/svg">
<path d="M0.115234 16.6666C0.115234 17.3569 0.675 17.9166 1.36523 17.9166H23.8652C24.5555 17.9166 25.1152 17.3569 25.1152 16.6666V4.16663H0.115234V16.6666ZM17.6152 8.54163C17.6152 8.19631 17.8949 7.91663 18.2402 7.91663H21.9902C22.3355 7.91663 22.6152 8.19631 22.6152 8.54163V9.79163C22.6152 10.1369 22.3355 10.4166 21.9902 10.4166H18.2402C17.8949 10.4166 17.6152 10.1369 17.6152 9.79163V8.54163ZM17.6152 13.2291C17.6152 13.0565 17.7551 12.9166 17.9277 12.9166H22.3027C22.4754 12.9166 22.6152 13.0565 22.6152 13.2291V13.8541C22.6152 14.0268 22.4754 14.1666 22.3027 14.1666H17.9277C17.7551 14.1666 17.6152 14.0268 17.6152 13.8541V13.2291ZM2.61523 9.47913C2.61523 9.30647 2.75508 9.16663 2.92773 9.16663H14.8027C14.9754 9.16663 15.1152 9.30647 15.1152 9.47913V10.1041C15.1152 10.2768 14.9754 10.4166 14.8027 10.4166H2.92773C2.75508 10.4166 2.61523 10.2768 2.61523 10.1041V9.47913ZM2.61523 13.2291C2.61523 13.0565 2.75508 12.9166 2.92773 12.9166H9.80273C9.97539 12.9166 10.1152 13.0565 10.1152 13.2291V13.8541C10.1152 14.0268 9.97539 14.1666 9.80273 14.1666H2.92773C2.75508 14.1666 2.61523 14.0268 2.61523 13.8541V13.2291ZM24.4902 0.416626H0.740234C0.394922 0.416626 0.115234 0.696313 0.115234 1.04163V2.91663H25.1152V1.04163C25.1152 0.696313 24.8355 0.416626 24.4902 0.416626Z" fill="#555555"/>
</svg>
