<svg width="70" height="70" viewBox="0 0 70 70" fill="none" xmlns="http://www.w3.org/2000/svg">
<circle cx="35" cy="35" r="35" fill="#F1FFE7"/>
<path d="M53.6712 46.1315L36.1266 54.8654C35.9196 54.9542 35.6968 55 35.4717 55C35.2465 55 35.0237 54.9542 34.8167 54.8654L17.2712 46.1315C16.9141 45.9529 16.9141 45.6601 17.2712 45.4806L21.473 43.3931C21.6802 43.3043 21.9033 43.2585 22.1288 43.2585C22.3543 43.2585 22.5774 43.3043 22.7846 43.3931L34.8167 49.3752C35.0235 49.4645 35.2464 49.5105 35.4717 49.5105C35.6969 49.5105 35.9198 49.4645 36.1266 49.3752L48.1587 43.3931C48.3658 43.3043 48.5887 43.2585 48.8141 43.2585C49.0394 43.2585 49.2623 43.3043 49.4694 43.3931L53.6712 45.4851C54.0328 45.6601 54.0328 45.9529 53.6712 46.1315ZM53.6712 33.9413L49.4694 31.8493C49.2623 31.7605 49.0394 31.7147 48.8141 31.7147C48.5887 31.7147 48.3658 31.7605 48.1587 31.8493L36.1266 37.8386C35.9195 37.927 35.6968 37.9726 35.4717 37.9726C35.2465 37.9726 35.0238 37.927 34.8167 37.8386L22.7846 31.8493C22.5774 31.7606 22.3543 31.7148 22.1288 31.7148C21.9033 31.7148 21.6802 31.7606 21.473 31.8493L17.2712 33.9413C16.9141 34.1199 16.9141 34.4136 17.2712 34.594L34.8167 43.3261C35.0237 43.4149 35.2465 43.4607 35.4717 43.4607C35.6968 43.4607 35.9196 43.4149 36.1266 43.3261L53.6712 34.594C54.0328 34.4136 54.0328 34.1208 53.6712 33.9413ZM17.2712 23.7877L34.8158 31.8493C35.2368 32.0145 35.7047 32.0145 36.1257 31.8493L53.6712 23.7877C54.0283 23.6217 54.0283 23.3511 53.6712 23.186L36.1257 15.1252C35.705 14.9583 35.2365 14.9583 34.8158 15.1252L17.2712 23.186C16.9096 23.3511 16.9096 23.6217 17.2712 23.7877Z" fill="#528265"/>
</svg>
