<svg width="30" height="30" viewBox="0 0 30 30" fill="none" xmlns="http://www.w3.org/2000/svg">
<path d="M16.0714 12.8571H13.9286C13.6444 12.8571 13.3719 12.97 13.171 13.171C12.97 13.3719 12.8571 13.6444 12.8571 13.9286V16.0714C12.8571 16.3556 12.97 16.6281 13.171 16.829C13.3719 17.03 13.6444 17.1429 13.9286 17.1429H16.0714C16.3556 17.1429 16.6281 17.03 16.829 16.829C17.03 16.6281 17.1429 16.3556 17.1429 16.0714V13.9286C17.1429 13.6444 17.03 13.3719 16.829 13.171C16.6281 12.97 16.3556 12.8571 16.0714 12.8571ZM22.5 12.8571H20.3571C20.073 12.8571 19.8005 12.97 19.5995 13.171C19.3986 13.3719 19.2857 13.6444 19.2857 13.9286V16.0714C19.2857 16.3556 19.3986 16.6281 19.5995 16.829C19.8005 17.03 20.073 17.1429 20.3571 17.1429H22.5C22.7842 17.1429 23.0567 17.03 23.2576 16.829C23.4585 16.6281 23.5714 16.3556 23.5714 16.0714V13.9286C23.5714 13.6444 23.4585 13.3719 23.2576 13.171C23.0567 12.97 22.7842 12.8571 22.5 12.8571ZM28.9286 12.8571H26.7857C26.5016 12.8571 26.229 12.97 26.0281 13.171C25.8272 13.3719 25.7143 13.6444 25.7143 13.9286V16.0714C25.7143 16.3556 25.8272 16.6281 26.0281 16.829C26.229 17.03 26.5016 17.1429 26.7857 17.1429H28.9286C29.2127 17.1429 29.4853 17.03 29.6862 16.829C29.8871 16.6281 30 16.3556 30 16.0714V13.9286C30 13.6444 29.8871 13.3719 29.6862 13.171C29.4853 12.97 29.2127 12.8571 28.9286 12.8571ZM9.64286 12.8571H7.5C7.21584 12.8571 6.94332 12.97 6.74239 13.171C6.54145 13.3719 6.42857 13.6444 6.42857 13.9286V16.0714C6.42857 16.3556 6.54145 16.6281 6.74239 16.829C6.94332 17.03 7.21584 17.1429 7.5 17.1429H9.64286C9.92702 17.1429 10.1995 17.03 10.4005 16.829C10.6014 16.6281 10.7143 16.3556 10.7143 16.0714V13.9286C10.7143 13.6444 10.6014 13.3719 10.4005 13.171C10.1995 12.97 9.92702 12.8571 9.64286 12.8571ZM16.0714 25.7143H13.9286C13.6444 25.7143 13.3719 25.8272 13.171 26.0281C12.97 26.229 12.8571 26.5016 12.8571 26.7857V28.9286C12.8571 29.2127 12.97 29.4853 13.171 29.6862C13.3719 29.8871 13.6444 30 13.9286 30H16.0714C16.3556 30 16.6281 29.8871 16.829 29.6862C17.03 29.4853 17.1429 29.2127 17.1429 28.9286V26.7857C17.1429 26.5016 17.03 26.229 16.829 26.0281C16.6281 25.8272 16.3556 25.7143 16.0714 25.7143ZM22.5 25.7143H20.3571C20.073 25.7143 19.8005 25.8272 19.5995 26.0281C19.3986 26.229 19.2857 26.5016 19.2857 26.7857V28.9286C19.2857 29.2127 19.3986 29.4853 19.5995 29.6862C19.8005 29.8871 20.073 30 20.3571 30H22.5C22.7842 30 23.0567 29.8871 23.2576 29.6862C23.4585 29.4853 23.5714 29.2127 23.5714 28.9286V26.7857C23.5714 26.5016 23.4585 26.229 23.2576 26.0281C23.0567 25.8272 22.7842 25.7143 22.5 25.7143ZM28.9286 25.7143H26.7857C26.5016 25.7143 26.229 25.8272 26.0281 26.0281C25.8272 26.229 25.7143 26.5016 25.7143 26.7857V28.9286C25.7143 29.2127 25.8272 29.4853 26.0281 29.6862C26.229 29.8871 26.5016 30 26.7857 30H28.9286C29.2127 30 29.4853 29.8871 29.6862 29.6862C29.8871 29.4853 30 29.2127 30 28.9286V26.7857C30 26.5016 29.8871 26.229 29.6862 26.0281C29.4853 25.8272 29.2127 25.7143 28.9286 25.7143ZM28.9286 19.2857H26.7857C26.5016 19.2857 26.229 19.3986 26.0281 19.5995C25.8272 19.8005 25.7143 20.073 25.7143 20.3571V22.5C25.7143 22.7842 25.8272 23.0567 26.0281 23.2576C26.229 23.4585 26.5016 23.5714 26.7857 23.5714H28.9286C29.2127 23.5714 29.4853 23.4585 29.6862 23.2576C29.8871 23.0567 30 22.7842 30 22.5V20.3571C30 20.073 29.8871 19.8005 29.6862 19.5995C29.4853 19.3986 29.2127 19.2857 28.9286 19.2857ZM28.9286 6.42857H26.7857C26.5016 6.42857 26.229 6.54145 26.0281 6.74239C25.8272 6.94332 25.7143 7.21584 25.7143 7.5V9.64286C25.7143 9.92702 25.8272 10.1995 26.0281 10.4005C26.229 10.6014 26.5016 10.7143 26.7857 10.7143H28.9286C29.2127 10.7143 29.4853 10.6014 29.6862 10.4005C29.8871 10.1995 30 9.92702 30 9.64286V7.5C30 7.21584 29.8871 6.94332 29.6862 6.74239C29.4853 6.54145 29.2127 6.42857 28.9286 6.42857ZM16.0714 19.2857H13.9286C13.6444 19.2857 13.3719 19.3986 13.171 19.5995C12.97 19.8005 12.8571 20.073 12.8571 20.3571V22.5C12.8571 22.7842 12.97 23.0567 13.171 23.2576C13.3719 23.4585 13.6444 23.5714 13.9286 23.5714H16.0714C16.3556 23.5714 16.6281 23.4585 16.829 23.2576C17.03 23.0567 17.1429 22.7842 17.1429 22.5V20.3571C17.1429 20.073 17.03 19.8005 16.829 19.5995C16.6281 19.3986 16.3556 19.2857 16.0714 19.2857ZM16.0714 6.42857H13.9286C13.6444 6.42857 13.3719 6.54145 13.171 6.74239C12.97 6.94332 12.8571 7.21584 12.8571 7.5V9.64286C12.8571 9.92702 12.97 10.1995 13.171 10.4005C13.3719 10.6014 13.6444 10.7143 13.9286 10.7143H16.0714C16.3556 10.7143 16.6281 10.6014 16.829 10.4005C17.03 10.1995 17.1429 9.92702 17.1429 9.64286V7.5C17.1429 7.21584 17.03 6.94332 16.829 6.74239C16.6281 6.54145 16.3556 6.42857 16.0714 6.42857ZM9.64286 25.7143H7.5C7.21584 25.7143 6.94332 25.8272 6.74239 26.0281C6.54145 26.229 6.42857 26.5016 6.42857 26.7857V28.9286C6.42857 29.2127 6.54145 29.4853 6.74239 29.6862C6.94332 29.8871 7.21584 30 7.5 30H9.64286C9.92702 30 10.1995 29.8871 10.4005 29.6862C10.6014 29.4853 10.7143 29.2127 10.7143 28.9286V26.7857C10.7143 26.5016 10.6014 26.229 10.4005 26.0281C10.1995 25.8272 9.92702 25.7143 9.64286 25.7143ZM16.0714 0H13.9286C13.6444 0 13.3719 0.112882 13.171 0.313814C12.97 0.514746 12.8571 0.787268 12.8571 1.07143V3.21429C12.8571 3.49845 12.97 3.77097 13.171 3.9719C13.3719 4.17283 13.6444 4.28571 13.9286 4.28571H16.0714C16.3556 4.28571 16.6281 4.17283 16.829 3.9719C17.03 3.77097 17.1429 3.49845 17.1429 3.21429V1.07143C17.1429 0.787268 17.03 0.514746 16.829 0.313814C16.6281 0.112882 16.3556 0 16.0714 0ZM22.5 0H20.3571C20.073 0 19.8005 0.112882 19.5995 0.313814C19.3986 0.514746 19.2857 0.787268 19.2857 1.07143V3.21429C19.2857 3.49845 19.3986 3.77097 19.5995 3.9719C19.8005 4.17283 20.073 4.28571 20.3571 4.28571H22.5C22.7842 4.28571 23.0567 4.17283 23.2576 3.9719C23.4585 3.77097 23.5714 3.49845 23.5714 3.21429V1.07143C23.5714 0.787268 23.4585 0.514746 23.2576 0.313814C23.0567 0.112882 22.7842 0 22.5 0ZM28.9286 0H26.7857C26.5016 0 26.229 0.112882 26.0281 0.313814C25.8272 0.514746 25.7143 0.787268 25.7143 1.07143V3.21429C25.7143 3.49845 25.8272 3.77097 26.0281 3.9719C26.229 4.17283 26.5016 4.28571 26.7857 4.28571H28.9286C29.2127 4.28571 29.4853 4.17283 29.6862 3.9719C29.8871 3.77097 30 3.49845 30 3.21429V1.07143C30 0.787268 29.8871 0.514746 29.6862 0.313814C29.4853 0.112882 29.2127 0 28.9286 0ZM3.21429 12.8571H1.07143C0.787268 12.8571 0.514746 12.97 0.313814 13.171C0.112882 13.3719 0 13.6444 0 13.9286L0 16.0714C0 16.3556 0.112882 16.6281 0.313814 16.829C0.514746 17.03 0.787268 17.1429 1.07143 17.1429H3.21429C3.49845 17.1429 3.77097 17.03 3.9719 16.829C4.17283 16.6281 4.28571 16.3556 4.28571 16.0714V13.9286C4.28571 13.6444 4.17283 13.3719 3.9719 13.171C3.77097 12.97 3.49845 12.8571 3.21429 12.8571ZM3.21429 25.7143H1.07143C0.787268 25.7143 0.514746 25.8272 0.313814 26.0281C0.112882 26.229 0 26.5016 0 26.7857L0 28.9286C0 29.2127 0.112882 29.4853 0.313814 29.6862C0.514746 29.8871 0.787268 30 1.07143 30H3.21429C3.49845 30 3.77097 29.8871 3.9719 29.6862C4.17283 29.4853 4.28571 29.2127 4.28571 28.9286V26.7857C4.28571 26.5016 4.17283 26.229 3.9719 26.0281C3.77097 25.8272 3.49845 25.7143 3.21429 25.7143ZM3.21429 19.2857H1.07143C0.787268 19.2857 0.514746 19.3986 0.313814 19.5995C0.112882 19.8005 0 20.073 0 20.3571L0 22.5C0 22.7842 0.112882 23.0567 0.313814 23.2576C0.514746 23.4585 0.787268 23.5714 1.07143 23.5714H3.21429C3.49845 23.5714 3.77097 23.4585 3.9719 23.2576C4.17283 23.0567 4.28571 22.7842 4.28571 22.5V20.3571C4.28571 20.073 4.17283 19.8005 3.9719 19.5995C3.77097 19.3986 3.49845 19.2857 3.21429 19.2857ZM3.21429 6.42857H1.07143C0.787268 6.42857 0.514746 6.54145 0.313814 6.74239C0.112882 6.94332 0 7.21584 0 7.5L0 9.64286C0 9.92702 0.112882 10.1995 0.313814 10.4005C0.514746 10.6014 0.787268 10.7143 1.07143 10.7143H3.21429C3.49845 10.7143 3.77097 10.6014 3.9719 10.4005C4.17283 10.1995 4.28571 9.92702 4.28571 9.64286V7.5C4.28571 7.21584 4.17283 6.94332 3.9719 6.74239C3.77097 6.54145 3.49845 6.42857 3.21429 6.42857ZM3.21429 0H1.07143C0.787268 0 0.514746 0.112882 0.313814 0.313814C0.112882 0.514746 0 0.787268 0 1.07143L0 3.21429C0 3.49845 0.112882 3.77097 0.313814 3.9719C0.514746 4.17283 0.787268 4.28571 1.07143 4.28571H3.21429C3.49845 4.28571 3.77097 4.17283 3.9719 3.9719C4.17283 3.77097 4.28571 3.49845 4.28571 3.21429V1.07143C4.28571 0.787268 4.17283 0.514746 3.9719 0.313814C3.77097 0.112882 3.49845 0 3.21429 0ZM9.64286 0H7.5C7.21584 0 6.94332 0.112882 6.74239 0.313814C6.54145 0.514746 6.42857 0.787268 6.42857 1.07143V3.21429C6.42857 3.49845 6.54145 3.77097 6.74239 3.9719C6.94332 4.17283 7.21584 4.28571 7.5 4.28571H9.64286C9.92702 4.28571 10.1995 4.17283 10.4005 3.9719C10.6014 3.77097 10.7143 3.49845 10.7143 3.21429V1.07143C10.7143 0.787268 10.6014 0.514746 10.4005 0.313814C10.1995 0.112882 9.92702 0 9.64286 0Z" fill="black"/>
</svg>
