<svg width="70" height="70" viewBox="0 0 70 70" fill="none" xmlns="http://www.w3.org/2000/svg">
<circle cx="35" cy="35" r="35" fill="#F1FFE7"/>
<path d="M55 35C55 46.0457 46.0457 55 35 55C23.9543 55 15 46.0457 15 35C15 23.9543 23.9543 15 35 15C46.0457 15 55 23.9543 55 35ZM32.6866 45.5898L47.5253 30.7511C48.0292 30.2473 48.0292 29.4302 47.5253 28.9264L45.7006 27.1016C45.1967 26.5977 44.3797 26.5977 43.8757 27.1016L31.7742 39.2031L26.1243 33.5531C25.6204 33.0493 24.8034 33.0493 24.2994 33.5531L22.4747 35.3779C21.9708 35.8818 21.9708 36.6988 22.4747 37.2027L30.8618 45.5898C31.3657 46.0937 32.1827 46.0937 32.6866 45.5898Z" fill="#528265"/>
</svg>
