<svg width="70" height="70" viewBox="0 0 70 70" fill="none" xmlns="http://www.w3.org/2000/svg">
<circle cx="35" cy="35" r="35" fill="#F1FFE7"/>
<path d="M35 15C23.9516 15 15 23.9516 15 35C15 46.0484 23.9516 55 35 55C46.0484 55 55 46.0484 55 35C55 23.9516 46.0484 15 35 15ZM24.3548 38.2258C23.8226 38.2258 23.3871 37.7903 23.3871 37.2581V32.7419C23.3871 32.2097 23.8226 31.7742 24.3548 31.7742H45.6452C46.1774 31.7742 46.6129 32.2097 46.6129 32.7419V37.2581C46.6129 37.7903 46.1774 38.2258 45.6452 38.2258H24.3548Z" fill="#528265"/>
</svg>
