<svg width="40" height="40" viewBox="0 0 40 40" fill="none" xmlns="http://www.w3.org/2000/svg">
<path d="M27.5444 10.0002C25.3499 10.0002 23.3187 10.3533 21.5242 11.0048L22.4937 1.38699C22.5781 0.571381 21.8601 -0.0918911 21.0414 0.0104512C14.8149 0.79169 10.0001 6.06583 10.0001 12.4556C10.0001 14.6501 10.3533 16.6813 11.0048 18.4758L1.38699 17.5063C0.57138 17.4219 -0.091891 18.1399 0.0104512 18.9586C0.79169 25.1851 6.06583 29.9999 12.4556 29.9999C14.6501 29.9999 16.6813 29.6467 18.4758 28.9952L17.5063 38.613C17.4243 39.4278 18.1399 40.0919 18.9586 39.9896C25.1851 39.2083 29.9999 33.9342 29.9999 27.5444C29.9999 25.3499 29.6467 23.3187 28.9952 21.5242L38.613 22.4937C39.4286 22.5758 40.0919 21.8601 39.9896 21.0414C39.2083 14.8149 33.9342 10.0002 27.5444 10.0002ZM20 22.5C19.5056 22.5 19.0222 22.3533 18.6111 22.0786C18.2 21.8039 17.8796 21.4135 17.6903 20.9567C17.5011 20.4999 17.4516 19.9972 17.5481 19.5123C17.6445 19.0273 17.8826 18.5819 18.2323 18.2323C18.5819 17.8826 19.0273 17.6445 19.5123 17.5481C19.9972 17.4516 20.4999 17.5011 20.9567 17.6903C21.4135 17.8796 21.8039 18.2 22.0786 18.6111C22.3533 19.0222 22.5 19.5056 22.5 20C22.5 20.663 22.2366 21.2989 21.7677 21.7677C21.2989 22.2366 20.663 22.5 20 22.5Z" fill="black"/>
</svg>
