<svg width="25" height="25" viewBox="0 0 25 25" fill="none" xmlns="http://www.w3.org/2000/svg">
<path d="M24.334 12.7531C24.3463 19.425 18.9053 24.8806 12.2334 24.8853C9.35181 24.8874 6.70493 23.8829 4.6249 22.2041C4.08403 21.7676 4.0436 20.957 4.53511 20.4655L5.08525 19.9154C5.50562 19.495 6.17671 19.449 6.64243 19.8185C8.1749 21.0345 10.1143 21.7604 12.2246 21.7604C17.1907 21.7604 21.209 17.7413 21.209 12.776C21.209 7.80994 17.1899 3.79163 12.2246 3.79163C9.84111 3.79163 7.67632 4.71785 6.06895 6.22971L8.54717 8.70793C9.03936 9.20012 8.69077 10.0416 7.99478 10.0416H0.896484C0.46499 10.0416 0.115234 9.69187 0.115234 9.26038V2.16208C0.115234 1.46609 0.956738 1.1175 1.44893 1.60964L3.85967 4.02039C6.03364 1.9428 8.98008 0.666626 12.2246 0.666626C18.9048 0.666626 24.3216 6.07581 24.334 12.7531ZM15.5004 16.6L15.98 15.9833C16.3774 15.4724 16.2854 14.7361 15.7745 14.3388L13.7871 12.793V7.69788C13.7871 7.05066 13.2625 6.526 12.6152 6.526H11.834C11.1868 6.526 10.6621 7.05066 10.6621 7.69788V14.3215L13.8559 16.8055C14.3668 17.2029 15.103 17.1109 15.5004 16.6Z" fill="#555555"/>
</svg>
