<svg width="25" height="24" viewBox="0 0 25 24" fill="none" xmlns="http://www.w3.org/2000/svg">
<path d="M22.1152 19.9999V12.1739C22.1153 11.6294 22.0042 11.0907 21.7887 10.5906C21.5733 10.0906 21.258 9.63982 20.8622 9.26591L13.4892 2.29791C13.1179 1.94683 12.6263 1.75122 12.1152 1.75122C11.6042 1.75122 11.1126 1.94683 10.7412 2.29791L3.36823 9.26591C2.97246 9.63982 2.65719 10.0906 2.44173 10.5906C2.22628 11.0907 2.11518 11.6294 2.11523 12.1739V19.9999C2.11523 20.5303 2.32595 21.039 2.70102 21.4141C3.07609 21.7892 3.5848 21.9999 4.11523 21.9999H20.1152C20.6457 21.9999 21.1544 21.7892 21.5294 21.4141C21.9045 21.039 22.1152 20.5303 22.1152 19.9999Z" stroke="black" stroke-width="2" stroke-linecap="round" stroke-linejoin="round"/>
</svg>
