<svg width="30" height="40" viewBox="0 0 30 40" fill="none" xmlns="http://www.w3.org/2000/svg">
<path d="M28.75 3.75C29.4375 3.75 30 3.1875 30 2.5V1.25C30 0.5625 29.4375 0 28.75 0H1.25C0.5625 0 0 0.5625 0 1.25V2.5C0 3.1875 0.5625 3.75 1.25 3.75H2.5V15.9922C0.921875 16.7812 0 17.7266 0 18.75C0 24 2.70313 28.6094 6.78125 31.2891L5.10938 36.7734C4.61719 38.375 5.82031 40 7.5 40H22.5C24.1797 40 25.3828 38.375 24.8906 36.7734L23.2188 31.2891C27.2969 28.6094 30 24 30 18.75C30 17.7266 29.0781 16.7812 27.5 15.9922V3.75H28.75ZM6.25 5.625C6.25 5.28125 6.53125 5 6.875 5H10.625C10.9688 5 11.25 5.28125 11.25 5.625V6.875C11.25 7.21875 10.9688 7.5 10.625 7.5H6.875C6.53125 7.5 6.25 7.21875 6.25 6.875V5.625ZM15 21.25C8.97656 21.25 4.09375 20.1328 4.09375 18.75C4.09375 17.3672 8.97656 16.25 15 16.25C21.0234 16.25 25.9062 17.3672 25.9062 18.75C25.9062 20.1328 21.0234 21.25 15 21.25Z" fill="black"/>
</svg>
