<svg width="21" height="27" viewBox="0 0 21 27" fill="none" xmlns="http://www.w3.org/2000/svg">
<path d="M17.6152 3.33333H13.4486C13.4486 1.49479 11.9538 0 10.1152 0C8.27669 0 6.7819 1.49479 6.7819 3.33333H2.61523C1.23503 3.33333 0.115234 4.45312 0.115234 5.83333V24.1667C0.115234 25.5469 1.23503 26.6667 2.61523 26.6667H17.6152C18.9954 26.6667 20.1152 25.5469 20.1152 24.1667V5.83333C20.1152 4.45312 18.9954 3.33333 17.6152 3.33333ZM5.11523 22.0833C4.42253 22.0833 3.86523 21.526 3.86523 20.8333C3.86523 20.1406 4.42253 19.5833 5.11523 19.5833C5.80794 19.5833 6.36523 20.1406 6.36523 20.8333C6.36523 21.526 5.80794 22.0833 5.11523 22.0833ZM5.11523 17.0833C4.42253 17.0833 3.86523 16.526 3.86523 15.8333C3.86523 15.1406 4.42253 14.5833 5.11523 14.5833C5.80794 14.5833 6.36523 15.1406 6.36523 15.8333C6.36523 16.526 5.80794 17.0833 5.11523 17.0833ZM5.11523 12.0833C4.42253 12.0833 3.86523 11.526 3.86523 10.8333C3.86523 10.1406 4.42253 9.58333 5.11523 9.58333C5.80794 9.58333 6.36523 10.1406 6.36523 10.8333C6.36523 11.526 5.80794 12.0833 5.11523 12.0833ZM10.1152 2.08333C10.8079 2.08333 11.3652 2.64062 11.3652 3.33333C11.3652 4.02604 10.8079 4.58333 10.1152 4.58333C9.42253 4.58333 8.86523 4.02604 8.86523 3.33333C8.86523 2.64062 9.42253 2.08333 10.1152 2.08333ZM16.7819 21.25C16.7819 21.4792 16.5944 21.6667 16.3652 21.6667H8.86523C8.63607 21.6667 8.44857 21.4792 8.44857 21.25V20.4167C8.44857 20.1875 8.63607 20 8.86523 20H16.3652C16.5944 20 16.7819 20.1875 16.7819 20.4167V21.25ZM16.7819 16.25C16.7819 16.4792 16.5944 16.6667 16.3652 16.6667H8.86523C8.63607 16.6667 8.44857 16.4792 8.44857 16.25V15.4167C8.44857 15.1875 8.63607 15 8.86523 15H16.3652C16.5944 15 16.7819 15.1875 16.7819 15.4167V16.25ZM16.7819 11.25C16.7819 11.4792 16.5944 11.6667 16.3652 11.6667H8.86523C8.63607 11.6667 8.44857 11.4792 8.44857 11.25V10.4167C8.44857 10.1875 8.63607 10 8.86523 10H16.3652C16.5944 10 16.7819 10.1875 16.7819 10.4167V11.25Z" fill="#555555"/>
</svg>
