<svg width="28" height="26" viewBox="0 0 28 26" fill="none" xmlns="http://www.w3.org/2000/svg">
<path fill-rule="evenodd" clip-rule="evenodd" d="M5.02649 12.5906C6.3006 13.0055 7.31555 14.0173 7.74026 15.3L7.78592 15.43C8.27228 16.7907 8.07477 18.2553 7.25961 19.3538C7.11119 19.5532 7.1443 19.7915 7.30071 19.9042L9.66626 21.6093C9.7496 21.6689 9.83066 21.6689 9.8809 21.6635C9.93798 21.6548 10.0213 21.6256 10.0887 21.5346L10.3524 21.1792C11.139 20.1208 12.4063 19.4676 13.7443 19.4307C15.2468 19.4015 16.5962 20.0547 17.4365 21.2063L17.5712 21.3916C17.6386 21.4826 17.7208 21.5129 17.779 21.5216C17.8292 21.5313 17.9114 21.5281 17.9936 21.4674L20.3466 19.7828C20.511 19.6658 20.5476 19.4156 20.4254 19.2477L20.1286 18.8414C19.3636 17.7927 19.1365 16.4321 19.5212 15.2025C19.9391 13.8635 21.0019 12.804 22.3663 12.3707L22.5957 12.297C22.7795 12.2396 22.8789 12.0229 22.8138 11.8236L21.9153 9.0925C21.873 8.96466 21.7863 8.90725 21.7383 8.88341C21.6698 8.84983 21.5956 8.84441 21.5248 8.86717L21.1367 8.98958C19.8089 9.40883 18.3441 9.18133 17.2196 8.37858L17.0963 8.29083C16.0277 7.52816 15.3918 6.29858 15.3963 5.00291L15.3986 4.69958C15.3986 4.5555 15.3267 4.46558 15.2833 4.42441C15.2422 4.38433 15.1726 4.33666 15.0744 4.33666L12.1665 4.33341C11.9884 4.33341 11.8434 4.49483 11.8423 4.69416L11.8412 4.95633C11.8354 6.27258 11.1858 7.52491 10.1035 8.30817L9.95625 8.41433C8.76548 9.27342 7.2128 9.51608 5.80626 9.06108C5.7526 9.04375 5.70237 9.047 5.65442 9.07083C5.61788 9.08817 5.55167 9.13258 5.5197 9.23116L4.58695 12.0435C4.51959 12.2482 4.63033 12.4617 4.83926 12.5299L5.02649 12.5906ZM9.83409 23.8334C9.27923 23.8334 8.74036 23.6622 8.28598 23.334L5.92043 21.6299C4.79017 20.8174 4.54014 19.2542 5.36215 18.1459C5.78913 17.5717 5.87704 16.834 5.62587 16.1342L5.56308 15.9522C5.35416 15.3217 4.87694 14.832 4.28669 14.6402H4.28555L4.09945 14.5785C2.7089 14.1267 1.96681 12.7282 2.40863 11.3935L3.34024 8.58225C3.55145 7.94633 4.00698 7.43283 4.62348 7.13708C5.22629 6.84891 5.90787 6.8045 6.54492 7.01141C7.22879 7.23241 7.988 7.11216 8.57368 6.68966L8.72095 6.5835C9.24156 6.2065 9.55552 5.59441 9.5578 4.94766L9.55894 4.68658C9.56465 3.29558 10.7349 2.16675 12.1654 2.16675H12.17L15.0778 2.17C15.7651 2.17108 16.4136 2.42891 16.9022 2.89583C17.408 3.37791 17.6842 4.0225 17.682 4.71041L17.6797 5.01266C17.6774 5.62583 17.9731 6.20541 18.472 6.56075L18.5942 6.6485C19.1182 7.02225 19.8009 7.1295 20.414 6.9345L20.801 6.81208C21.4598 6.60408 22.1607 6.655 22.7784 6.95508C23.412 7.26275 23.8801 7.7925 24.0947 8.44791L24.9932 11.179C25.4271 12.4985 24.6759 13.922 23.3207 14.3521L23.0912 14.4247C22.4336 14.6348 21.9164 15.1548 21.7098 15.8178C21.5203 16.4256 21.6299 17.094 22.0055 17.6075L22.3023 18.0137C23.1175 19.1317 22.8572 20.7004 21.7223 21.5118L19.3694 23.1975C18.8042 23.6027 18.1112 23.7662 17.4159 23.6612C16.715 23.5539 16.103 23.1856 15.6932 22.6244L15.5584 22.4381C15.1589 21.8921 14.5195 21.5606 13.8494 21.5963C13.1781 21.6137 12.5981 21.9159 12.219 22.4272L11.9553 22.7826C11.542 23.3383 10.929 23.7012 10.2314 23.8052C10.0978 23.8247 9.96538 23.8334 9.83409 23.8334ZM13.7 11.375C12.7559 11.375 11.9875 12.1041 11.9875 13C11.9875 13.8959 12.7559 14.625 13.7 14.625C14.6442 14.625 15.4125 13.8959 15.4125 13C15.4125 12.1041 14.6442 11.375 13.7 11.375ZM13.7 16.7916C11.4966 16.7916 9.70416 15.0908 9.70416 13C9.70416 10.9091 11.4966 9.20831 13.7 9.20831C15.9035 9.20831 17.6959 10.9091 17.6959 13C17.6959 15.0908 15.9035 16.7916 13.7 16.7916Z" fill="#555555"/>
</svg>
