<svg width="30" height="23" viewBox="0 0 30 23" fill="none" xmlns="http://www.w3.org/2000/svg">
<path d="M19.5 15.25H21.75C22.125 15.25 22.5 14.875 22.5 14.5V6.625C22.5 6.25 22.125 5.875 21.75 5.875H19.5C19.125 5.875 18.75 6.25 18.75 6.625V14.5C18.75 14.875 19.125 15.25 19.5 15.25ZM25.125 15.25H27.375C27.75 15.25 28.125 14.875 28.125 14.5V1C28.125 0.625 27.75 0.25 27.375 0.25H25.125C24.75 0.25 24.375 0.625 24.375 1V14.5C24.375 14.875 24.75 15.25 25.125 15.25ZM8.25 15.25H10.5C10.875 15.25 11.25 14.875 11.25 14.5V10.375C11.25 10 10.875 9.625 10.5 9.625H8.25C7.875 9.625 7.5 10 7.5 10.375V14.5C7.5 14.875 7.875 15.25 8.25 15.25ZM13.875 15.25H16.125C16.5 15.25 16.875 14.875 16.875 14.5V2.875C16.875 2.5 16.5 2.125 16.125 2.125H13.875C13.5 2.125 13.125 2.5 13.125 2.875V14.5C13.125 14.875 13.5 15.25 13.875 15.25ZM29.0625 19H3.75V1.1875C3.75 0.669531 3.33047 0.25 2.8125 0.25H0.9375C0.419531 0.25 0 0.669531 0 1.1875V20.875C0 21.9104 0.839648 22.75 1.875 22.75H29.0625C29.5805 22.75 30 22.3305 30 21.8125V19.9375C30 19.4195 29.5805 19 29.0625 19Z" fill="black"/>
</svg>
