<svg width="18" height="18" viewBox="0 0 18 18" fill="none" xmlns="http://www.w3.org/2000/svg">
<path d="M11.9668 9.16663L16.853 4.2804C17.4526 3.68079 17.4526 2.70862 16.853 2.10852L15.7671 1.02258C15.1675 0.422974 14.1953 0.422974 13.5952 1.02258L8.70898 5.90881L3.82275 1.02258C3.22314 0.422974 2.25098 0.422974 1.65088 1.02258L0.564941 2.10852C-0.034668 2.70813 -0.034668 3.6803 0.564941 4.2804L5.45117 9.16663L0.564941 14.0529C-0.034668 14.6525 -0.034668 15.6246 0.564941 16.2247L1.65088 17.3107C2.25049 17.9103 3.22314 17.9103 3.82275 17.3107L8.70898 12.4244L13.5952 17.3107C14.1948 17.9103 15.1675 17.9103 15.7671 17.3107L16.853 16.2247C17.4526 15.6251 17.4526 14.653 16.853 14.0529L11.9668 9.16663Z" fill="black"/>
</svg>
